<?xml version="1.0" encoding="UTF-8"?>
<svg id="Calque_1" data-name="Calque 1" xmlns="http://www.w3.org/2000/svg" viewBox="0 0 14.18 6.09">
  <defs>
    <style>
      .cls-1 {
        fill: #234998;
      }

      .cls-1, .cls-2 {
        stroke-width: 0px;
      }

      .cls-2 {
        fill: #828383;
      }
    </style>
  </defs>
  <path class="cls-2" d="m1.49,3.93c-.48.13-.96.27-1.45.41.02-.03.04-.04.06-.05.21-.13.42-.25.64-.36.29-.15.59-.29.89-.42.23-.1.45-.19.68-.27.36-.13.73-.24,1.11-.33.17-.04.35-.08.53-.12.13-.02.27-.05.4-.07.52-.09,1.05-.13,1.58-.16.2,0,.4-.01.59-.02.33-.01.67,0,1,0,.37.01.73.03,1.09.07.37.04.74.08,1.11.15.1.02.2.04.29.06.17.03.34.07.5.11.49.13.96.29,1.43.48.24.1.48.21.72.33.32.16.64.34.95.55,0,0,.02.01.02.02-.69-.21-1.37-.43-2.07-.61-.02.01,0,.03,0,.04,0,.53,0,1.06,0,1.59,0,.14.07.24.18.31.11.08.24.11.37.13.23.04.47.06.7.09.13.01.26.03.4.03.04,0,.04,0,.04.04,0,.04,0,.08,0,.12,0,.03-.01.04-.04.04h-4.87c-.08,0-.07,0-.07-.07v-.09s0-.03.03-.04c.13,0,.25,0,.38-.01.14,0,.29-.01.43-.03.1,0,.21-.02.31-.03.13-.02.26-.05.37-.12.11-.07.17-.16.17-.3,0-.65,0-1.31,0-1.96v-.03s0-.04-.03-.04c-.06,0-.13-.02-.19-.03-.18-.03-.36-.05-.54-.08-.17-.02-.35-.04-.52-.06-.16-.01-.32-.03-.48-.04-.13,0-.26-.02-.39-.02-.2,0-.4,0-.6-.01-.18,0-.36,0-.53,0-.19,0-.37,0-.56.02-.13,0-.26.01-.4.02-.11,0-.22.02-.33.02-.04,0-.05,0-.05.06v1.03c0,.08,0,.07-.07.07h-.12s-.04,0-.04-.03c0-.04-.02-.08-.03-.12-.06-.2-.16-.38-.3-.53-.06-.07-.14-.12-.22-.16-.16-.08-.32-.12-.49-.15-.06,0-.11,0-.16.01-.26.04-.51.1-.77.15-.05,0-.05,0-.05.06,0,.6,0,1.2,0,1.8,0,.13.07.23.18.3.11.07.24.11.37.13.19.03.38.05.56.07.11,0,.22.02.33.02.03,0,.04,0,.04.04,0,.04,0,.09,0,.13,0,.03,0,.04-.04.03H.07c-.08,0-.07,0-.07-.07v-.09s0-.04.04-.04.08,0,.11,0c.11,0,.22,0,.33-.01.17,0,.34-.01.51-.04.13-.02.25-.06.36-.14.06-.04.1-.1.12-.17.01-.05.03-.1.03-.15v-1.38s0-.03-.01-.06Z"/>
  <path class="cls-1" d="m11.54,3.01c-.05,0-.1-.03-.15-.04-.13-.04-.26-.09-.4-.12-.06-.02-.12-.04-.19-.05-.09-.02-.17-.05-.26-.07-.09-.02-.19-.05-.28-.07-.04,0-.08-.01-.12-.03-.04-.02-.08-.02-.12-.03,0,0,0,0,0,0,0,0-.02,0-.03,0,0,0-.01,0-.01-.01V.33h0s0,0,0,0c-.07,0-.15,0-.22,0h-.21s-.1,0-.14,0c0,0-.02,0-.03,0-.04,0-.09,0-.13,0-.18.02-.35.09-.51.18-.4.23-.73.54-.99.92-.02.03-.04.03-.07.03-.05,0-.1,0-.16,0-.02,0-.03,0-.03-.03V.06s0-.04,0-.05h6.68s0,.03,0,.04v1.44s-.04.01-.06.01c-.06,0-.11,0-.16,0-.28-.4-.62-.73-1.05-.97-.09-.05-.18-.09-.28-.12-.09-.02-.19-.05-.28-.05-.06-.01-.12,0-.18,0h0s-.02,0-.02,0c-.08,0-.15,0-.23,0-.04,0-.07,0-.11,0-.08-.01-.15-.01-.23,0,0,0,0,0,0,0t0,0s0,0,0,0v2.66s-.01,0-.01,0Z"/>
  <path class="cls-1" d="m.7.37s-.06,0-.08-.01c-.02-.01-.05,0-.08,0,0,0-.01,0-.02,0-.02-.01-.05,0-.08,0,0,0-.01,0-.02,0-.02-.01-.04,0-.05,0-.09,0-.17-.01-.26-.02-.03-.01-.07,0-.1,0-.01-.02,0-.03,0-.05,0-.08,0-.16,0-.24h6.75s0,.04,0,.05v1.38h0c0,.06,0,.06-.05.06h-.15s-.03,0-.04-.02c-.12-.23-.3-.41-.5-.58-.18-.15-.37-.29-.59-.39-.11-.05-.22-.08-.34-.11-.01,0-.03,0-.04,0h0s0,0,0,0c0,0,0,0,0,0-.02-.01-.04,0-.07,0,0,0,0,0,0,0-.08-.01-.15-.02-.23-.01-.05,0-.09,0-.14,0,0,0-.01,0-.02,0-.12,0-.23,0-.35,0-.02,0-.04,0-.06,0-.01-.01-.03,0-.04,0-.33,0-.67,0-1.01,0-.01,0-.03,0-.05,0,0,.02,0,.04,0,.06v2.28s0,.06.02.08c-.55.14-1.07.33-1.59.55-.01-.02,0-.04,0-.06V.89c0-.08-.01-.17-.06-.24-.04-.06-.09-.1-.15-.13-.09-.05-.19-.08-.3-.1-.05-.01-.1-.02-.15-.03-.02-.01-.05-.01-.08-.01h0s-.04,0-.06,0Z"/>
  <path class="cls-1" d="m4.74,2.42c.15-.13.25-.29.32-.47.01-.04.01-.08.04-.12,0,0,0,0,0,0,0-.01,0-.02,0-.03,0,0,0,0,0,0,0,0,0-.01,0-.02h.21s0,.03,0,.04v.54s0,.03,0,.05c-.07,0-.14,0-.21.02h0s-.07,0-.1,0c-.02,0-.04,0-.06,0-.02,0-.03,0-.05,0-.01,0-.03,0-.04,0-.02,0-.05,0-.07,0-.02,0-.04.01-.05,0h0s0,0,0-.01Z"/>
</svg>