<?xml version="1.0" encoding="utf-8"?>
<!-- Generator: Adobe Illustrator 27.1.1, SVG Export Plug-In . SVG Version: 6.00 Build 0)  -->
<svg version="1.1" id="Calque_1" xmlns="http://www.w3.org/2000/svg" xmlns:xlink="http://www.w3.org/1999/xlink" x="0px" y="0px"
	 viewBox="0 0 79.05 40.79" style="enable-background:new 0 0 79.05 40.79;" xml:space="preserve">
<style type="text/css">
	.st0{fill:#828383;}
	.st1{fill:#234998;}
	.st2{fill:none;stroke:#009640;stroke-miterlimit:10;}
</style>
<g>
	<path class="st0" d="M16.44,23.39c-1.99,0.54-3.97,1.11-5.99,1.68c0.08-0.11,0.16-0.15,0.24-0.19c0.86-0.54,1.74-1.03,2.63-1.49
		c1.21-0.62,2.43-1.2,3.68-1.73c0.93-0.4,1.86-0.77,2.81-1.12c1.5-0.54,3.02-1,4.57-1.37c0.72-0.17,1.44-0.34,2.17-0.48
		c0.55-0.1,1.11-0.19,1.67-0.28c2.16-0.36,4.34-0.54,6.53-0.66c0.82-0.04,1.63-0.05,2.45-0.07c1.38-0.05,2.76-0.03,4.14,0.02
		c1.51,0.05,3.01,0.14,4.51,0.28c1.53,0.15,3.05,0.35,4.56,0.62c0.41,0.07,0.81,0.18,1.21,0.25c0.7,0.12,1.39,0.29,2.08,0.47
		c2.01,0.53,3.98,1.18,5.9,1.98c1,0.42,1.99,0.86,2.95,1.35c1.34,0.68,2.66,1.42,3.91,2.25c0.04,0.02,0.07,0.05,0.1,0.09
		c-2.84-0.88-5.67-1.77-8.55-2.52c-0.07,0.05-0.04,0.12-0.04,0.17c0,2.18-0.01,4.36,0,6.54c0,0.56,0.29,0.98,0.75,1.28
		c0.47,0.31,1,0.45,1.54,0.53c0.96,0.15,1.92,0.26,2.88,0.36c0.54,0.05,1.09,0.11,1.64,0.11c0.16,0,0.16,0.01,0.17,0.16
		c0,0.17-0.01,0.34,0,0.51c0.01,0.12-0.05,0.16-0.16,0.15c-0.04,0-0.09,0-0.13,0c-6.65,0-13.3,0-19.94,0c-0.34,0-0.29,0.03-0.3-0.3
		c0-0.13,0-0.25,0-0.38c0-0.1,0.03-0.14,0.14-0.15c0.52-0.02,1.04-0.03,1.55-0.06c0.59-0.04,1.18-0.06,1.77-0.12
		c0.43-0.04,0.85-0.07,1.28-0.14c0.54-0.09,1.06-0.22,1.53-0.51c0.45-0.28,0.71-0.67,0.71-1.23c-0.01-2.7,0-5.4,0-8.1
		c0-0.04,0-0.07,0-0.11c0.01-0.11-0.03-0.16-0.14-0.18c-0.26-0.04-0.52-0.1-0.79-0.14c-0.74-0.11-1.48-0.22-2.22-0.31
		c-0.72-0.09-1.44-0.17-2.16-0.24c-0.66-0.06-1.31-0.13-1.97-0.16c-0.54-0.03-1.08-0.07-1.62-0.1c-0.82-0.04-1.65-0.03-2.47-0.06
		c-0.73-0.03-1.47-0.03-2.2-0.01c-0.77,0.02-1.54,0.03-2.31,0.07c-0.55,0.03-1.09,0.06-1.64,0.1c-0.46,0.03-0.92,0.07-1.37,0.09
		c-0.18,0.01-0.19,0.03-0.19,0.25c0,1.42,0,2.83,0,4.25c0,0.34,0.03,0.3-0.29,0.3c-0.17,0-0.34,0-0.51,0c-0.1,0-0.15-0.03-0.17-0.13
		c-0.03-0.17-0.08-0.33-0.13-0.49c-0.25-0.82-0.66-1.55-1.24-2.18c-0.25-0.27-0.56-0.48-0.89-0.65c-0.64-0.32-1.31-0.5-2.01-0.6
		c-0.23-0.04-0.46,0.02-0.68,0.06c-1.06,0.18-2.11,0.4-3.16,0.61c-0.19,0.04-0.2,0.04-0.2,0.25c0,2.47-0.01,4.94,0.01,7.41
		c0,0.53,0.28,0.94,0.73,1.23c0.47,0.3,1,0.46,1.54,0.54c0.77,0.11,1.55,0.21,2.33,0.28c0.46,0.04,0.91,0.1,1.37,0.09
		c0.11,0,0.16,0.03,0.16,0.15c-0.01,0.18-0.01,0.36,0,0.53c0,0.11-0.04,0.15-0.15,0.14c-0.04,0-0.09,0-0.13,0
		c-6.11,0-12.21,0-18.32,0c-0.31,0-0.27,0.02-0.27-0.28c0-0.13,0-0.25,0-0.38c0-0.16,0-0.16,0.16-0.17
		c0.16-0.01,0.31-0.01,0.47-0.01c0.45,0,0.9-0.03,1.35-0.06c0.71-0.04,1.42-0.05,2.12-0.16c0.53-0.09,1.04-0.23,1.48-0.56
		c0.24-0.18,0.42-0.4,0.5-0.69c0.06-0.2,0.11-0.41,0.11-0.63c0-1.9,0-3.8,0-5.7C16.47,23.59,16.48,23.51,16.44,23.39z"/>
	<path class="st1" d="M57.92,19.58c-0.21-0.03-0.4-0.11-0.6-0.18c-0.54-0.18-1.09-0.36-1.64-0.51c-0.26-0.07-0.51-0.15-0.77-0.22
		c-0.36-0.1-0.72-0.19-1.08-0.28c-0.39-0.1-0.77-0.19-1.16-0.28c-0.17-0.04-0.35-0.05-0.51-0.11c-0.15-0.09-0.32-0.1-0.49-0.11
		c-0.01,0-0.03,0-0.04-0.01c-0.04-0.04-0.09-0.03-0.14-0.03c-0.03-0.01-0.05-0.03-0.05-0.06c0-0.05,0-0.1,0-0.16
		c0-3.03,0-6.06,0-9.09c0,0,0.01-0.01,0.01-0.01c-0.01,0-0.01-0.01-0.02-0.01c-0.3-0.03-0.6-0.01-0.9-0.01c-0.29,0-0.57,0-0.86,0
		c-0.2,0-0.4-0.04-0.59,0.03c-0.04,0-0.08,0-0.12,0.01c-0.18,0-0.37-0.03-0.54,0.04c-0.76,0.09-1.44,0.37-2.09,0.75
		c-1.64,0.96-3.02,2.22-4.09,3.8c-0.07,0.11-0.15,0.14-0.27,0.14c-0.21-0.01-0.43-0.01-0.64,0c-0.09,0-0.14-0.02-0.13-0.12
		c0-0.04,0-0.07,0-0.11c0-1.88,0-3.77,0-5.65c0-0.07-0.01-0.15,0.02-0.22c0.06,0,0.12,0,0.18,0c9.13,0,18.26,0,27.39,0
		c0,0.06,0.01,0.12,0.01,0.18c0,1.94,0,3.89,0,5.83c0,0.03,0,0.06,0,0.09c-0.07,0.06-0.15,0.05-0.23,0.05c-0.23,0-0.46,0-0.68,0.01
		c-1.14-1.66-2.57-3-4.33-3.99c-0.37-0.21-0.75-0.39-1.16-0.5c-0.38-0.1-0.77-0.21-1.17-0.21c-0.25-0.06-0.51-0.04-0.76-0.04
		l-0.02,0c0,0-0.02,0-0.02,0c-0.03-0.03-0.07-0.03-0.1-0.03c-0.31,0-0.62-0.01-0.93-0.01c-0.15,0-0.29-0.01-0.44-0.01
		c-0.32-0.05-0.63-0.05-0.95-0.01c-0.01,0.01-0.01,0.02-0.02,0.03c-0.01,0-0.01,0-0.02,0.01c0,0.01,0.01,0.02,0.01,0.03
		c0,0.06,0,0.12,0,0.18c0,3.53,0,7.07,0,10.6c0,0.06,0,0.12,0,0.18C57.93,19.55,57.92,19.56,57.92,19.58z"/>
	<path class="st1" d="M13.2,8.68c-0.12-0.02-0.23-0.03-0.35-0.05c-0.1-0.06-0.21-0.04-0.32-0.04c-0.03,0-0.05-0.01-0.08-0.01
		c-0.1-0.06-0.21-0.04-0.32-0.03c-0.03,0-0.06-0.01-0.08-0.01c-0.07-0.05-0.15-0.03-0.22-0.03c-0.36-0.03-0.71-0.06-1.07-0.1
		c-0.13-0.06-0.27-0.02-0.41-0.04c-0.05-0.07-0.03-0.14-0.02-0.21c0.01-0.33-0.03-0.66,0.02-0.99c0.04,0,0.07,0,0.11,0
		c9.18,0,18.37,0,27.55,0c0.06,0,0.12,0,0.18,0c0.03,0.07,0.02,0.15,0.02,0.22c0,1.9,0,3.8,0,5.69c0,0.01,0,0.03,0,0.04
		c0,0.2,0.01,0.19-0.19,0.19c-0.21,0-0.42,0-0.62,0c-0.07,0-0.12-0.02-0.16-0.09c-0.49-0.96-1.24-1.69-2.05-2.38
		c-0.74-0.63-1.53-1.19-2.42-1.61c-0.45-0.21-0.92-0.35-1.4-0.47c-0.06-0.01-0.12,0.02-0.17-0.03c0,0,0-0.01,0-0.01l-0.01,0
		c-0.01,0-0.03,0-0.04-0.01c-0.08-0.06-0.18-0.04-0.27-0.04c-0.01,0-0.03,0-0.04-0.01c-0.32-0.05-0.63-0.09-0.96-0.06
		c-0.19-0.01-0.37-0.02-0.56-0.03c-0.02-0.02-0.05-0.03-0.08-0.03c-0.48,0-0.96-0.03-1.44-0.01c-0.09,0-0.17-0.01-0.26-0.01
		c-0.05-0.05-0.11-0.03-0.17-0.03c-1.38,0-2.77-0.01-4.15-0.01c-0.06,0-0.13-0.02-0.19,0.03C22.99,8.61,23,8.69,23,8.77
		c0,3.13,0,6.26,0,9.39c0,0.11-0.02,0.23,0.09,0.35c-2.26,0.59-4.43,1.35-6.57,2.25c-0.05-0.09-0.04-0.17-0.04-0.25
		c0-1.3,0-2.59,0-3.89c0-1.92,0-3.84,0-5.76c0-0.35-0.05-0.69-0.24-1c-0.15-0.24-0.36-0.41-0.61-0.54C15.25,9.11,14.83,9,14.4,8.9
		c-0.21-0.05-0.42-0.09-0.62-0.13c-0.1-0.06-0.21-0.06-0.31-0.06l-0.02,0c0,0-0.02,0-0.02,0C13.36,8.66,13.28,8.67,13.2,8.68z"/>
	<path class="st1" d="M29.86,17.14c0.61-0.53,1.02-1.18,1.3-1.93c0.06-0.16,0.06-0.33,0.15-0.48c0.02-0.01,0.02-0.02,0.01-0.04
		c0.01-0.05,0.02-0.09,0.02-0.14c0.02-0.01,0.03-0.02,0.01-0.04c0.01-0.03,0.02-0.06,0.03-0.08c0.29,0,0.58,0,0.87,0
		c0.03,0.05,0.02,0.12,0.02,0.17c0,0.74,0,1.48,0,2.22c0,0.06,0.02,0.13-0.03,0.19c-0.29,0-0.57,0.02-0.85,0.08l-0.02,0
		c0,0-0.02,0-0.02,0c-0.13,0.01-0.27-0.02-0.4,0.04c-0.08,0.01-0.17,0.02-0.25,0.02c-0.07-0.01-0.14-0.03-0.2,0.03
		c-0.05,0.01-0.11,0.01-0.16,0.02c-0.1-0.02-0.2,0-0.3,0.02c-0.07,0.01-0.16,0.05-0.22-0.03c0,0,0.01-0.01,0.01-0.01
		C29.84,17.17,29.86,17.16,29.86,17.14z"/>
</g>
</svg>
