<?xml version="1.0" encoding="utf-8"?>
<!-- Generator: Adobe Illustrator 27.1.1, SVG Export Plug-In . SVG Version: 6.00 Build 0)  -->
<svg version="1.1" id="Calque_1" xmlns="http://www.w3.org/2000/svg" xmlns:xlink="http://www.w3.org/1999/xlink" x="0px" y="0px"
	 viewBox="0 0 109.52 33.4" style="enable-background:new 0 0 109.52 33.4;" xml:space="preserve">
<style type="text/css">
	.st0{fill:#828383;}
	.st1{fill:#234998;}
	.st2{fill:none;stroke:#009640;stroke-miterlimit:10;}
</style>
<g>
	<path class="st1" d="M86.42,12.4c-0.11,0.03-0.21,0.05-0.32,0.08c-0.16,0.03-0.24,0.14-0.26,0.29c-0.01,0.07-0.01,0.15-0.01,0.22
		c0,1.82,0,3.64,0,5.46c0,0.37,0.07,0.47,0.43,0.56c0.12,0.03,0.25,0.05,0.37,0.07c0.03,0.04,0.08,0.04,0.12,0.04
		c0,0.15,0,0.3,0,0.45c-0.03,0.02-0.04,0.04-0.03,0.07c-0.03,0.04-0.06,0.09-0.11,0.11c-0.84,0-1.68-0.01-2.52-0.01
		c-0.13,0-0.26,0.01-0.4,0.01c-0.11-0.06-0.15-0.16-0.14-0.29c0.01-0.1,0-0.2,0-0.31c0-0.04,0.01-0.07,0.05-0.08
		c0.15,0,0.29,0.02,0.43-0.04c0.07-0.01,0.13-0.02,0.2-0.04c0.16-0.04,0.23-0.15,0.25-0.3c0-0.04,0.01-0.09,0.01-0.13
		c0-0.8,0-1.6,0-2.4c0-0.19,0-0.2-0.19-0.2c-0.88,0-1.76,0-2.65,0c-0.19,0-0.19,0-0.19,0.2c0,0.78,0,1.56,0,2.34
		c0,0.31,0.08,0.42,0.39,0.5c0.14,0.04,0.28,0.06,0.41,0.08c0.03,0.04,0.07,0.04,0.12,0.05c0,0.17,0.02,0.33-0.01,0.5
		c-0.01,0-0.02,0.01-0.02,0.03c-0.04,0.04-0.07,0.07-0.11,0.11c-0.95,0-1.9,0-2.85,0c-0.02,0-0.04,0.01-0.06,0.01
		c-0.12-0.06-0.16-0.16-0.15-0.29c0.01-0.1,0-0.21,0-0.31c0-0.04,0.01-0.07,0.05-0.08c0.15,0,0.3,0.03,0.44-0.04
		c0.07-0.01,0.13-0.02,0.2-0.04c0.14-0.04,0.22-0.14,0.24-0.29c0.01-0.07,0.01-0.15,0.01-0.22c0-1.81,0-3.62,0-5.43
		c0-0.04,0-0.07,0-0.11c0-0.22-0.09-0.37-0.3-0.44c-0.13-0.04-0.25-0.08-0.38-0.12c-0.07-0.06-0.15-0.04-0.23-0.03
		c-0.07-0.17-0.03-0.34-0.03-0.51c0-0.07,0.07-0.12,0.13-0.16c0.98,0,1.96,0,2.93,0.01c0.03,0.03,0.06,0.07,0.09,0.1
		c0,0.02,0,0.03,0.02,0.03c0.03,0.16,0.01,0.33,0.01,0.49c-0.1,0.07-0.23,0-0.33,0.08c-0.11,0.03-0.22,0.05-0.32,0.08
		c-0.17,0.04-0.24,0.15-0.26,0.32c0,0.04-0.01,0.07-0.01,0.11c0,0.7,0,1.39,0,2.09c0,0.17,0,0.17,0.17,0.17c0.9,0,1.79,0,2.69,0
		c0.17,0,0.17,0,0.17-0.17c0-0.67,0-1.35,0-2.02c0-0.24-0.1-0.39-0.33-0.47c-0.17-0.06-0.34-0.11-0.52-0.13
		c-0.08-0.01-0.1-0.04-0.1-0.11c0-0.12,0-0.24,0-0.36c0-0.1,0.06-0.16,0.13-0.21c0.98,0,1.96,0,2.93,0c0.03,0.03,0.06,0.07,0.09,0.1
		c0,0.03,0.01,0.06,0.04,0.08c0,0.15,0,0.3,0,0.46C86.66,12.4,86.52,12.32,86.42,12.4z"/>
	<path class="st1" d="M22.1,19.93c-0.18,0.02-0.33-0.06-0.49-0.11c-0.95-0.31-1.61-0.95-2.04-1.84c-0.45-0.92-0.56-1.9-0.46-2.9
		c0.08-0.77,0.32-1.49,0.78-2.13c0.47-0.67,1.09-1.14,1.9-1.35c0.13-0.03,0.26-0.05,0.39-0.08c0.29,0,0.58,0,0.87,0
		c0,0,0.01,0,0.01,0c0.06,0.05,0.14,0.05,0.22,0.04c0.94,0.19,1.64,0.73,2.15,1.53c0.4,0.63,0.61,1.33,0.68,2.07
		c0.07,0.79,0.02,1.56-0.24,2.3c-0.35,0.99-0.96,1.77-1.93,2.22c-0.27,0.13-0.55,0.21-0.85,0.25C22.75,19.93,22.43,19.93,22.1,19.93
		z M22.31,12.31c-0.59,0.1-0.98,0.47-1.25,0.97c-0.23,0.41-0.34,0.86-0.41,1.32c-0.1,0.68-0.11,1.36-0.04,2.04
		c0.06,0.57,0.2,1.12,0.5,1.62c0.26,0.45,0.63,0.77,1.15,0.87c0.22,0.07,0.44,0.07,0.67,0c0.12-0.04,0.25-0.06,0.37-0.12
		c0.34-0.16,0.6-0.42,0.8-0.75c0.27-0.45,0.41-0.95,0.49-1.46c0.01,0,0.01-0.01,0.01-0.01c0-0.01,0-0.03-0.01-0.04
		c0.01-0.13,0.03-0.26,0.04-0.39c0,0,0.01-0.01,0.01-0.01c0-0.01-0.01-0.02-0.01-0.03c0.01-0.15,0.02-0.31,0.02-0.46
		c0-0.47-0.03-0.94-0.12-1.41c-0.09-0.49-0.22-0.96-0.5-1.38c-0.28-0.42-0.66-0.69-1.17-0.77C22.68,12.25,22.5,12.25,22.31,12.31z"
		/>
	<path class="st1" d="M66.12,15.97c-0.01,0.04-0.02,0.07-0.02,0.11c0,0.78,0,1.57,0.01,2.35c0.01,0.41,0.12,0.52,0.54,0.57
		c0.03,0.03,0.06,0.03,0.1,0.03c0.39,0,0.78,0,1.17,0c0.04,0,0.07-0.01,0.1-0.04c0.57-0.1,0.61-0.13,0.88-0.62
		c0.19-0.34,0.35-0.7,0.47-1.07c0.03-0.1,0.08-0.15,0.19-0.13c0.06,0.01,0.12,0.01,0.18,0c0.12-0.02,0.2,0.04,0.25,0.14
		c0.01,0.01,0.01,0.03,0.02,0.04c-0.01,0.18-0.02,0.36-0.03,0.54c-0.03,0.02-0.04,0.05,0,0.07c-0.01,0.2-0.03,0.4-0.04,0.6
		c-0.04,0.04-0.05,0.08-0.01,0.12c-0.01,0.21-0.03,0.43-0.04,0.64c-0.04,0.02-0.04,0.05,0,0.07c-0.01,0.13,0.02,0.26-0.05,0.38
		c-0.06,0-0.12-0.01-0.18-0.01c-1.87,0-3.74,0-5.62,0c-0.05,0-0.1,0.01-0.15,0.01c-0.05-0.02-0.08-0.07-0.11-0.11
		c0-0.02,0-0.03-0.02-0.03c-0.03-0.17-0.01-0.33-0.01-0.5c0.11-0.01,0.22-0.03,0.32-0.05c0.13-0.02,0.26-0.02,0.38-0.08
		c0.21-0.05,0.29-0.19,0.3-0.39c0-0.07,0-0.15,0-0.22c0-1.83,0-3.66,0-5.49c0.01-0.01,0.01-0.02-0.01-0.03
		c-0.02-0.2-0.16-0.3-0.33-0.36c-0.21-0.07-0.42-0.11-0.64-0.14c-0.01-0.01-0.02-0.02-0.02-0.04c0-0.16-0.02-0.33,0.01-0.49
		c0.02,0,0.03-0.02,0.03-0.04c0.03-0.03,0.06-0.06,0.09-0.1c1.82,0,3.64,0,5.47,0c0.03,0.03,0.06,0.07,0.09,0.1
		c0,0.03,0.01,0.06,0.04,0.08c0,0.61,0.02,1.22-0.01,1.83c-0.02,0-0.02,0.01-0.02,0.03c-0.03,0.05-0.06,0.09-0.11,0.12
		c-0.16-0.02-0.31-0.01-0.47,0c-0.11-0.36-0.26-0.69-0.49-0.99c-0.06-0.08-0.12-0.15-0.19-0.22c-0.13-0.14-0.31-0.2-0.5-0.2
		c-0.03-0.04-0.08-0.03-0.12-0.03c-0.48,0-0.97-0.03-1.45,0.01c-0.04,0.07-0.03,0.14-0.03,0.22c0,0.78,0,1.57,0,2.35
		c0,0.04,0,0.07,0,0.11c0,0.07,0.03,0.11,0.1,0.11c0.28-0.01,0.56,0.01,0.84-0.02c0.26-0.03,0.43-0.18,0.54-0.41
		c0.09-0.2,0.14-0.42,0.18-0.64c0.01-0.06,0.02-0.12,0.03-0.17c0.17,0,0.34-0.01,0.51-0.01c0.03,0.03,0.06,0.06,0.09,0.1
		c0,0.03,0,0.06,0.03,0.08c0,1,0,1.99,0,2.99c-0.02,0-0.02,0.02-0.02,0.03c-0.06,0.11-0.15,0.15-0.27,0.14c-0.06-0.01-0.12,0-0.18,0
		c-0.16,0-0.16,0-0.18-0.17c-0.02-0.24-0.08-0.46-0.16-0.68c-0.07-0.18-0.17-0.32-0.35-0.41c-0.02-0.04-0.06-0.03-0.09-0.03
		c-0.01,0-0.03,0-0.04-0.01c-0.03-0.01-0.05-0.03-0.08-0.03C66.73,15.96,66.43,15.95,66.12,15.97z"/>
	<path class="st1" d="M33.99,11.7c0.04,0.38,0.02,0.75,0.03,1.13c0.02,0.51,0.02,1.02,0.03,1.53c0,0.12-0.02,0.23-0.11,0.32
		c-0.18,0-0.36,0-0.53,0c-0.09-0.33-0.17-0.66-0.29-0.97c-0.1-0.27-0.22-0.53-0.4-0.76c-0.25-0.34-0.57-0.57-1-0.64
		c-0.2-0.06-0.4-0.06-0.6,0c-0.57,0.09-0.97,0.41-1.27,0.88c-0.3,0.46-0.43,0.97-0.52,1.5c-0.13,0.78-0.11,1.57,0.06,2.34
		c0.11,0.52,0.32,1.02,0.67,1.43c0.3,0.35,0.68,0.59,1.14,0.68c0.25,0.07,0.5,0.07,0.75,0c0.17-0.04,0.34-0.1,0.5-0.17
		c0.21-0.09,0.35-0.21,0.31-0.46c0,0,0.01-0.01,0.01-0.01c0-0.01-0.01-0.02-0.01-0.03c0-0.42,0-0.84,0-1.25c0,0,0.01-0.01,0.01-0.01
		c0-0.01-0.01-0.02-0.02-0.03c-0.01-0.24-0.16-0.35-0.37-0.4c-0.11-0.02-0.22-0.04-0.32-0.06c-0.06-0.05-0.12-0.03-0.18-0.03
		c-0.34-0.02-0.28,0.01-0.29-0.31c0-0.06,0-0.12,0-0.18c0.01-0.14,0.1-0.23,0.24-0.23c0.03,0,0.06,0,0.09,0c0.91,0,1.82,0,2.72,0
		c0.13,0,0.23,0.02,0.29,0.14c-0.01,0.02,0,0.04,0.02,0.05c0,0.11,0.01,0.22,0.01,0.32c0,0.18,0,0.18-0.19,0.21
		c-0.08,0-0.16-0.02-0.23,0.04c-0.44,0.1-0.51,0.18-0.5,0.64c0,0.58-0.02,1.16,0.02,1.73c0.01,0.12-0.05,0.17-0.14,0.22
		c-0.55,0.27-1.12,0.47-1.72,0.58c-0.11,0.02-0.21,0.06-0.32,0.05c-0.17,0.01-0.33-0.02-0.5,0.03c-0.04,0-0.08,0-0.12,0
		c-0.13-0.06-0.27-0.03-0.41-0.03c-1.06-0.16-1.86-0.73-2.43-1.63c-0.26-0.42-0.43-0.87-0.54-1.35c-0.11-0.49-0.13-0.98-0.11-1.47
		c0.03-0.02,0.04-0.05,0.01-0.08c0.05-0.8,0.27-1.54,0.7-2.22c0.46-0.72,1.08-1.23,1.89-1.5c0.14-0.05,0.28-0.07,0.43-0.11
		c0.1,0,0.21,0.02,0.3-0.04c0.22-0.02,0.45-0.02,0.67,0c0.1,0.06,0.2,0.04,0.3,0.04c0.37,0.06,0.72,0.19,1.04,0.38
		c0.08,0.05,0.12,0.01,0.15-0.05c0.03-0.06,0.07-0.13,0.11-0.19C33.59,11.7,33.79,11.7,33.99,11.7z"/>
	<path class="st1" d="M36.06,19.05c0.45-0.09,0.7-0.39,0.84-0.8c0.31-0.87,0.62-1.74,0.93-2.61c0.45-1.27,0.89-2.54,1.34-3.81
		c0.02-0.06,0.04-0.11,0.06-0.17c0.02-0.07,0.06-0.1,0.13-0.09c0.01,0,0.03,0,0.04,0c0.14,0,0.3-0.04,0.42,0.02
		c0.12,0.06,0.12,0.24,0.16,0.37c0.74,2.11,1.48,4.22,2.21,6.33c0.02,0.06,0.04,0.11,0.06,0.17c0.13,0.32,0.35,0.52,0.7,0.59
		c0.07,0.01,0.13,0.04,0.2,0.03c0.12,0,0.13,0.06,0.13,0.15c-0.01,0.08-0.01,0.16,0,0.24c0.01,0.13-0.03,0.23-0.15,0.3
		c-0.26-0.03-0.53-0.01-0.8-0.01c-0.71,0-1.42,0-2.13,0.01c-0.05-0.03-0.08-0.07-0.11-0.11c0-0.02,0-0.03-0.02-0.03
		c-0.03-0.17-0.01-0.33-0.01-0.5c0.14-0.05,0.3-0.01,0.43-0.08c0.11-0.03,0.23-0.06,0.34-0.09c0.09-0.02,0.13-0.08,0.1-0.16
		c-0.18-0.54-0.36-1.08-0.54-1.62c-0.03-0.1-0.1-0.09-0.18-0.09c-0.57,0-1.14,0-1.71,0c-0.13,0-0.29-0.04-0.39,0.02
		c-0.11,0.07-0.12,0.25-0.16,0.38c-0.1,0.33-0.23,0.65-0.28,0.99c-0.01,0.07-0.02,0.13-0.03,0.2c-0.02,0.1,0.03,0.17,0.12,0.22
		c0.15,0.08,0.3,0.11,0.46,0.15c0.12,0.07,0.26,0.04,0.39,0.04c0,0,0.01,0,0.01,0c0.01,0.01,0.02,0.02,0.03,0.04
		c0.01,0.17,0.02,0.33-0.01,0.5c-0.01,0-0.02,0.01-0.01,0.02c-0.04,0.04-0.07,0.08-0.11,0.11c-0.82,0-1.65-0.01-2.47-0.01
		c-0.06,0-0.12,0.01-0.18,0.01c-0.11-0.06-0.16-0.16-0.15-0.29c0.01-0.1,0-0.21,0-0.31c0-0.04,0.01-0.07,0.05-0.08
		C35.88,19.09,35.98,19.11,36.06,19.05z M39.23,13.84c-0.29,0.84-0.56,1.62-0.84,2.43c0.58,0,1.12,0,1.7,0
		C39.81,15.47,39.53,14.68,39.23,13.84z"/>
	<path class="st1" d="M17.49,11.7c0.03,0.03,0.06,0.07,0.09,0.1c0,0.02,0.01,0.03,0.02,0.04c0.03,0.26,0.01,0.53,0.01,0.79
		c0,0.38,0,0.75,0,1.13c-0.03,0.01-0.04,0.04-0.03,0.07c-0.05,0.09-0.13,0.13-0.24,0.12c-0.06-0.01-0.12-0.01-0.18,0
		c-0.13,0.02-0.18-0.03-0.21-0.16c-0.1-0.38-0.29-0.71-0.53-1.01c-0.15-0.2-0.34-0.33-0.6-0.32c-0.03-0.04-0.08-0.03-0.12-0.03
		c-0.48,0-0.96,0-1.44-0.01c-0.04,0-0.07,0-0.1,0.03c0,0.16-0.01,0.33-0.01,0.49c0,0.76,0,1.53,0,2.29
		c0.02,0.05,0.07,0.05,0.11,0.05c0.24,0,0.48,0,0.72,0c0.05,0,0.1,0,0.14-0.04c0.35-0.05,0.57-0.26,0.66-0.6
		c0.05-0.17,0.1-0.34,0.1-0.52c0-0.11,0.05-0.14,0.15-0.14c0.07,0.01,0.15,0.01,0.22,0c0.12-0.02,0.2,0.03,0.25,0.13
		c0,0.02,0.01,0.04,0.03,0.04c0,0.75,0.01,1.5,0.01,2.25c0,0.22,0,0.44,0,0.67c0,0.21-0.09,0.29-0.3,0.29
		c-0.1,0-0.22,0.02-0.31-0.02c-0.1-0.05-0.04-0.19-0.06-0.29c-0.04-0.17-0.08-0.33-0.13-0.49c-0.09-0.31-0.3-0.48-0.62-0.53
		c-0.05-0.01-0.1-0.01-0.15-0.02c-0.24-0.07-0.48-0.01-0.72-0.03c-0.04,0-0.07,0-0.1,0.04c-0.01,0.04-0.01,0.09-0.01,0.13
		c0,0.79,0,1.58,0,2.38c0,0.28,0.09,0.4,0.37,0.47c0.16,0.04,0.33,0.09,0.5,0.09c0.09,0,0.11,0.04,0.11,0.12c0,0.1-0.01,0.21,0,0.31
		c0.01,0.11-0.05,0.18-0.12,0.25c-1.03,0-2.05,0-3.08,0c-0.03-0.04-0.07-0.08-0.1-0.12c0,0,0-0.01,0-0.01l-0.01-0.01
		c-0.02-0.17-0.02-0.34,0-0.51c0.02,0.01,0.04-0.01,0.05-0.03c0.02,0,0.03,0,0.05,0c0.15,0,0.3,0.03,0.44-0.04
		c0.32-0.02,0.45-0.15,0.45-0.47c0-1.87,0-3.73,0-5.6c0-0.29-0.07-0.38-0.34-0.47c-0.17-0.06-0.36-0.1-0.54-0.12
		c-0.1-0.01-0.12-0.05-0.12-0.14c0-0.09,0.01-0.18,0-0.27c-0.01-0.12,0.03-0.2,0.12-0.27c0.24,0,0.47,0,0.71,0
		C14.26,11.7,15.87,11.7,17.49,11.7z"/>
	<path class="st1" d="M23.64,27.95c-0.03-0.1-0.01-0.21-0.02-0.31c-0.01-0.08,0.04-0.1,0.11-0.1c0.06,0,0.12,0,0.18,0
		c16.85,0,33.7,0,50.55,0c0.33,0,0.28-0.06,0.29,0.3c0,0.04-0.01,0.07-0.02,0.11c-0.08,0-0.16-0.01-0.24-0.01
		c-16.86,0-33.72,0-50.58,0C23.82,27.95,23.73,27.95,23.64,27.95z"/>
	<path class="st1" d="M77.44,11.7c0.03,0.34,0.02,0.68,0.02,1.02c0.01,0.63,0.02,1.25,0.03,1.88c-0.02,0.01-0.03,0.02-0.02,0.04
		c-0.06,0.11-0.15,0.16-0.28,0.14c-0.02,0-0.04,0-0.07,0c-0.28,0-0.27,0-0.35-0.28c-0.11-0.41-0.21-0.83-0.41-1.21
		c-0.13-0.26-0.3-0.5-0.52-0.69c-0.17-0.15-0.37-0.24-0.59-0.28c-0.17-0.06-0.34-0.06-0.51,0c-0.63,0.12-1.06,0.5-1.34,1.06
		c-0.16,0.31-0.27,0.63-0.34,0.97c-0.16,0.83-0.19,1.66-0.02,2.49c0.12,0.61,0.37,1.17,0.81,1.63c0.27,0.28,0.59,0.47,0.97,0.55
		c0.24,0.07,0.47,0.07,0.71,0c0.53-0.11,0.93-0.41,1.22-0.86c0.13-0.2,0.24-0.41,0.32-0.63c0.07-0.17,0.18-0.21,0.35-0.13
		c0.12,0.06,0.29,0.09,0.33,0.2c0.05,0.12-0.07,0.26-0.12,0.39c-0.12,0.3-0.27,0.58-0.46,0.84c-0.47,0.65-1.1,1.02-1.89,1.12
		c-0.14,0-0.28-0.02-0.41,0.03c-0.04,0-0.08,0-0.12,0c-0.13-0.06-0.27-0.03-0.41-0.04c-0.94-0.15-1.64-0.67-2.16-1.45
		c-0.44-0.67-0.66-1.42-0.71-2.22c-0.03-0.48-0.04-0.97,0.05-1.44c0.28-1.39,0.91-2.55,2.31-3.12c0.47-0.19,0.96-0.22,1.46-0.18
		c0.07,0.05,0.14,0.04,0.22,0.04c0.02,0,0.03,0,0.05,0.01c0.05,0.05,0.11,0.05,0.17,0.04c0.28,0.06,0.53,0.17,0.77,0.31
		c0.1,0.06,0.16,0.06,0.2-0.05c0.02-0.06,0.05-0.12,0.1-0.17C77.04,11.7,77.24,11.7,77.44,11.7z"/>
	<path class="st1" d="M62.23,11.7c0.1,0.07,0.14,0.16,0.13,0.28c0,0.61,0,1.21,0,1.82c0,0.23-0.07,0.3-0.3,0.3
		c-0.01,0-0.01,0-0.02,0c-0.25,0-0.25,0-0.32-0.24c-0.14-0.43-0.34-0.82-0.62-1.17c-0.13-0.16-0.28-0.25-0.49-0.26
		c-0.21-0.01-0.43-0.02-0.64-0.03c-0.09,0-0.14,0.03-0.13,0.13c0,0.04,0,0.09,0,0.13c0,1.88,0,3.76,0,5.65
		c0,0.5,0.05,0.57,0.53,0.68c0.16,0.04,0.32,0.08,0.48,0.08c0.09,0,0.12,0.04,0.11,0.12c0,0.1-0.01,0.21,0,0.31
		c0.01,0.11-0.05,0.18-0.12,0.25c-0.25,0-0.5,0-0.75,0c-0.86,0-1.73,0-2.59,0.01c-0.05-0.03-0.08-0.07-0.11-0.11
		c0.01-0.01,0-0.02-0.01-0.02c-0.03-0.16-0.02-0.33-0.01-0.5c0.01-0.01,0.02-0.02,0.02-0.03c0.02,0,0.03-0.01,0.05-0.01
		c0.13,0,0.27,0.02,0.39-0.04c0.1-0.02,0.21-0.03,0.31-0.05c0.24-0.05,0.34-0.17,0.36-0.41c0-0.05,0-0.1,0-0.16
		c0-1.92,0-3.84,0-5.76c0-0.04,0-0.09,0-0.13c0.01-0.08-0.03-0.12-0.12-0.12c-0.27,0-0.55,0.01-0.82,0.05
		c-0.14,0.02-0.23,0.12-0.32,0.22c-0.31,0.36-0.51,0.78-0.65,1.23c-0.07,0.23-0.05,0.18-0.25,0.19c-0.04,0-0.09,0-0.13,0
		c-0.16-0.01-0.25-0.09-0.25-0.24c0-0.64,0-1.29,0-1.93c0-0.11,0.06-0.18,0.14-0.23c0.09,0,0.18,0.01,0.27,0.01
		c1.03,0,2.06,0,3.08,0C60.37,11.7,61.3,11.7,62.23,11.7z"/>
	<path class="st0" d="M40.56,24.63c0.36,0.35,0.55,0.81,0.81,1.22c0.08,0.14,0.05,0.18-0.11,0.19c-0.37,0.02-0.37,0.02-0.56-0.29
		c-0.12-0.21-0.25-0.42-0.37-0.63c-0.05-0.09-0.12-0.17-0.18-0.25c-0.1-0.13-0.24-0.19-0.41-0.19c-0.53,0.01-0.42-0.07-0.43,0.41
		c-0.01,0.26,0,0.52,0,0.78c0,0.15-0.02,0.16-0.16,0.17c-0.32,0.02-0.33,0.02-0.33-0.3c0-0.88,0-1.75,0-2.63c0-0.05,0-0.1,0-0.16
		c0-0.1,0.04-0.15,0.14-0.15c0.13,0,0.25,0,0.38,0c0.34,0,0.68,0,1.02,0.01c0.5,0.02,0.79,0.3,0.83,0.8
		c0.04,0.47-0.15,0.78-0.55,0.93C40.61,24.57,40.58,24.58,40.56,24.63z M39.83,24.17C39.83,24.17,39.83,24.17,39.83,24.17
		c0.13-0.01,0.27,0,0.4-0.01c0.03,0,0.06,0,0.09-0.01c0.23-0.03,0.37-0.2,0.37-0.42c0.01-0.26-0.15-0.44-0.44-0.46
		c-0.28-0.02-0.56,0-0.84-0.01c-0.07,0-0.11,0.03-0.11,0.1c0,0.23,0,0.46,0,0.69c0,0.07,0.04,0.11,0.11,0.11
		C39.55,24.17,39.69,24.17,39.83,24.17z"/>
	<path class="st0" d="M67.89,25.02c0-0.07,0-0.14,0-0.21c0-0.59,0-1.17,0-1.76c0-0.08-0.04-0.18,0.06-0.22
		c0.12-0.04,0.25-0.04,0.37,0c0.04,0.01,0.05,0.06,0.05,0.09c0,0.04,0,0.09,0,0.13c0,0.91,0,1.82,0,2.74c0,0.05,0,0.1-0.01,0.16
		c0,0.04-0.03,0.08-0.07,0.08c-0.13,0.01-0.25,0.01-0.38,0c-0.09-0.01-0.11-0.11-0.15-0.18c-0.4-0.65-0.79-1.3-1.19-1.96
		c-0.02-0.04-0.03-0.08-0.1-0.1c0,0.08,0,0.15,0,0.23c0,0.6,0,1.2,0,1.8c0,0.07,0.04,0.18-0.07,0.21c-0.11,0.03-0.24,0.04-0.35-0.01
		C66,26,66.01,25.93,66.01,25.88c0-0.2,0-0.4,0-0.6c0-0.73,0-1.45,0-2.18c0-0.06,0-0.12,0-0.18c0-0.04,0.01-0.08,0.05-0.09
		c0.12-0.03,0.25-0.02,0.38-0.01c0.08,0.01,0.09,0.09,0.13,0.14c0.33,0.54,0.66,1.09,1,1.63c0.09,0.14,0.18,0.29,0.27,0.43
		C67.85,25.03,67.87,25.02,67.89,25.02z"/>
	<path class="st0" d="M44.2,23.83c0,0.07,0,0.14,0,0.21c0,0.59,0,1.19,0,1.78c0,0.22,0,0.22-0.22,0.22c-0.04,0-0.09,0-0.13,0
		c-0.08,0-0.12-0.05-0.12-0.13c0-0.04,0-0.09,0-0.13c0-0.9,0-1.79,0-2.69c0-0.05,0-0.1,0-0.16c0-0.04,0.01-0.08,0.05-0.1
		c0.11-0.05,0.23-0.02,0.35-0.03c0.08-0.01,0.12,0.05,0.15,0.11c0.2,0.34,0.41,0.67,0.61,1.01c0.22,0.35,0.43,0.71,0.65,1.06
		c0.02,0.02,0.03,0.05,0.09,0.07c0-0.06,0-0.11,0-0.17c0-0.61,0-1.22,0-1.82c0-0.05,0-0.1,0-0.16c0-0.06,0.04-0.1,0.1-0.1
		c0.04,0,0.07,0,0.11,0c0.24,0,0.25,0,0.25,0.24c0,0.91,0,1.82,0,2.73c0,0.05,0,0.1,0,0.16c0,0.06-0.04,0.09-0.1,0.1
		c-0.07,0-0.15,0-0.22,0c-0.11,0.01-0.17-0.04-0.23-0.13c-0.28-0.47-0.57-0.94-0.85-1.41c-0.12-0.2-0.24-0.39-0.36-0.59
		C44.29,23.89,44.28,23.83,44.2,23.83z"/>
	<path class="st0" d="M26.66,25.07c0-0.67,0-1.3,0-1.94c0-0.05,0-0.1,0-0.16c0-0.03,0-0.06,0.01-0.09c0.07-0.13,0.2-0.06,0.3-0.07
		c0.08-0.01,0.15,0.01,0.16,0.11c0.01,0.04,0,0.09,0,0.13c0,0.92,0,1.84,0,2.76c0,0.23,0,0.22-0.24,0.23
		c-0.19,0.01-0.29-0.06-0.39-0.22c-0.38-0.65-0.78-1.29-1.17-1.94c-0.02-0.03-0.03-0.07-0.1-0.09c0,0.06,0,0.11,0,0.17
		c0,0.62,0,1.23,0,1.85c0,0.08,0.04,0.18-0.06,0.21c-0.11,0.03-0.24,0.03-0.35,0c-0.05-0.01-0.05-0.07-0.05-0.12
		c0-0.99,0-1.97,0-2.96c0-0.09,0.04-0.14,0.13-0.14c0.05,0,0.1,0.01,0.16,0c0.14-0.02,0.21,0.04,0.28,0.16
		c0.38,0.63,0.76,1.26,1.14,1.88C26.54,24.92,26.57,25,26.66,25.07z"/>
	<path class="st0" d="M63.62,24.38c-0.01,0.55-0.12,1-0.48,1.35c-0.57,0.57-1.53,0.49-2.02-0.14c-0.51-0.66-0.41-1.74-0.05-2.25
		c0.21-0.29,0.47-0.49,0.83-0.55c1.01-0.16,1.52,0.48,1.67,1.16C63.6,24.11,63.62,24.28,63.62,24.38z M61.28,24.42
		c0,0.29,0.03,0.56,0.19,0.81c0.19,0.28,0.45,0.42,0.79,0.39c0.34-0.03,0.58-0.22,0.71-0.53c0.18-0.43,0.18-0.87,0.02-1.3
		c-0.08-0.21-0.22-0.37-0.42-0.47c-0.48-0.25-1.05,0-1.22,0.55C61.3,24.05,61.28,24.24,61.28,24.42z"/>
	<path class="st0" d="M34.13,24.43c0-0.47,0-0.93,0-1.4c0-0.21,0-0.21,0.21-0.21c0.59,0,1.17,0,1.76,0c0.2,0,0.21,0.01,0.21,0.22
		c0,0.01,0,0.03,0,0.04c0,0.22-0.01,0.23-0.22,0.23c-0.38,0-0.76,0-1.13,0c-0.04,0-0.07,0-0.11,0c-0.22,0-0.22,0-0.22,0.22
		c0,0.14,0,0.28,0,0.42c0,0.17,0,0.18,0.17,0.18c0.38,0,0.76,0,1.13,0c0.27,0,0.27,0,0.26,0.28c0,0.01,0,0.01,0,0.02
		c0,0.19-0.01,0.19-0.21,0.19c-0.23,0-0.46,0-0.69,0c-0.18,0-0.36,0-0.53,0c-0.11,0-0.14,0.04-0.14,0.14c0,0.21,0,0.42,0,0.62
		c0,0.16,0,0.16,0.16,0.16c0.42,0,0.85,0,1.27,0c0.33,0,0.33,0.01,0.32,0.34c0,0.11-0.05,0.16-0.16,0.16c-0.25,0-0.5,0-0.76,0
		c-0.38,0-0.76,0-1.13,0c-0.18,0-0.19-0.01-0.19-0.19C34.13,25.38,34.13,24.9,34.13,24.43z"/>
	<path class="st1" d="M47.84,16.19c0.05-0.1,0.14-0.14,0.25-0.14c0.89,0,1.78,0,2.67,0c0.21,0,0.28,0.07,0.29,0.28
		c0,0.21,0,0.42,0,0.62c0,0.2-0.08,0.27-0.29,0.27c-0.89,0-1.78,0-2.67,0c-0.2,0-0.28-0.08-0.28-0.28c0-0.24,0-0.47,0-0.71
		C47.84,16.23,47.85,16.21,47.84,16.19z"/>
	<path class="st0" d="M49.7,25.1c-0.13,0-0.25,0.01-0.38,0c-0.14-0.01-0.2,0.05-0.23,0.17c-0.06,0.21-0.14,0.42-0.21,0.63
		c-0.03,0.1-0.08,0.14-0.19,0.14c-0.39,0-0.39,0.02-0.26-0.35c0.32-0.89,0.63-1.79,0.94-2.68c0.07-0.2,0.07-0.2,0.28-0.2
		c0.04,0,0.07,0,0.11,0c0.12-0.01,0.18,0.03,0.23,0.15c0.35,0.96,0.71,1.92,1.07,2.87c0.07,0.18,0.05,0.2-0.15,0.21
		c-0.32,0.01-0.32,0.01-0.43-0.3c-0.06-0.17-0.13-0.33-0.17-0.5c-0.03-0.12-0.1-0.15-0.21-0.14C49.96,25.11,49.83,25.1,49.7,25.1z
		 M49.3,24.65c0.28,0,0.52,0.01,0.79-0.01c-0.13-0.39-0.26-0.75-0.4-1.16C49.55,23.89,49.43,24.25,49.3,24.65z"/>
	<path class="st0" d="M73.1,26.04c-0.04,0-0.07,0-0.11,0c-0.1,0.01-0.15-0.03-0.18-0.13c-0.08-0.23-0.17-0.46-0.24-0.69
		c-0.03-0.09-0.07-0.13-0.17-0.13c-0.28,0.01-0.56,0.01-0.84,0c-0.11,0-0.16,0.05-0.19,0.14c-0.07,0.22-0.15,0.43-0.21,0.65
		c-0.03,0.11-0.09,0.16-0.2,0.15c-0.06-0.01-0.12,0-0.18,0c-0.16-0.01-0.18-0.03-0.13-0.19c0.2-0.58,0.41-1.16,0.61-1.74
		c0.14-0.38,0.28-0.77,0.4-1.15c0.04-0.11,0.09-0.15,0.21-0.15c0.39,0.01,0.31-0.05,0.44,0.29c0.33,0.87,0.65,1.75,0.98,2.62
		c0.01,0.03,0.02,0.06,0.03,0.08c0.08,0.22,0.06,0.23-0.18,0.24C73.13,26.04,73.12,26.04,73.1,26.04z M72.37,24.64
		c-0.14-0.39-0.26-0.76-0.41-1.17c-0.14,0.42-0.26,0.78-0.39,1.17C71.85,24.64,72.09,24.64,72.37,24.64z"/>
	<path class="st0" d="M30.4,24.65c0-0.39,0-0.77,0-1.16c0-0.19,0-0.19-0.18-0.19c-0.19,0-0.37,0-0.56,0c-0.18,0-0.19-0.02-0.2-0.19
		c0-0.04,0-0.09,0-0.13c0.01-0.15,0.03-0.17,0.17-0.17c0.68,0,1.36,0,2.04,0c0.12,0,0.15,0.05,0.15,0.16
		c0.01,0.33,0.02,0.33-0.32,0.33c-0.13,0-0.25,0-0.38,0c-0.24,0-0.25,0-0.25,0.24c0,0.73,0,1.47,0,2.2c0,0.32,0,0.32-0.32,0.3
		c-0.15-0.01-0.17-0.02-0.17-0.17C30.4,25.47,30.4,25.06,30.4,24.65C30.4,24.65,30.4,24.65,30.4,24.65z"/>
	<path class="st0" d="M54.04,24.68c0-0.37,0-0.74,0-1.11c0-0.28,0.03-0.26-0.27-0.26c-0.16,0-0.31,0-0.47,0
		c-0.18,0-0.19-0.02-0.2-0.19c-0.01-0.31-0.01-0.31,0.3-0.31c0.62,0,1.23,0,1.85,0c0.08,0,0.19-0.04,0.21,0.07
		c0.02,0.13,0.05,0.27-0.04,0.39c-0.04,0.05-0.09,0.03-0.14,0.04c-0.18,0-0.36,0-0.53,0c-0.21,0-0.21,0-0.21,0.21
		c0,0.7,0,1.39,0,2.09c0,0.1,0,0.21,0,0.31c0,0.08-0.04,0.12-0.12,0.13c-0.33,0.04-0.37,0.01-0.37-0.32
		C54.04,25.38,54.04,25.03,54.04,24.68z"/>
	<path class="st0" d="M75.59,24.42c0-0.47,0-0.93,0-1.4c0-0.2,0.01-0.2,0.2-0.21c0.01,0,0.03,0,0.04,0c0.25,0,0.25,0,0.25,0.25
		c0,0.71,0,1.42,0,2.13c0,0.05,0,0.1,0,0.16c0,0.2,0,0.2,0.19,0.2c0.3,0,0.61,0,0.91,0c0.31,0,0.31-0.02,0.31,0.35
		c0,0.1-0.04,0.15-0.15,0.15c-0.12,0-0.24,0-0.36,0c-0.41,0-0.82,0-1.22,0c-0.17,0-0.18-0.01-0.18-0.18
		C75.59,25.38,75.59,24.9,75.59,24.42z"/>
	<path class="st0" d="M21.69,24.43c0-0.47,0-0.93,0-1.4c0-0.21,0.01-0.21,0.21-0.21c0.04,0,0.09,0,0.13,0
		c0.11,0,0.15,0.05,0.14,0.15c0,0.04,0,0.09,0,0.13c0,0.89,0,1.78,0,2.67c0,0.06,0,0.12,0,0.18c0,0.05-0.03,0.09-0.08,0.09
		c-0.11,0.01-0.22,0.01-0.33,0c-0.05,0-0.07-0.05-0.08-0.1c0-0.05,0-0.1,0-0.16C21.69,25.33,21.69,24.88,21.69,24.43z"/>
	<path class="st0" d="M57.81,24.43c0-0.46,0-0.92,0-1.38c0-0.24,0-0.24,0.23-0.24c0.04,0,0.07,0,0.11,0c0.1,0,0.15,0.04,0.15,0.15
		c0,0.04,0,0.07,0,0.11c0,0.9,0,1.81,0,2.71c0,0.05,0,0.1,0,0.16c0,0.05-0.02,0.09-0.08,0.1c-0.11,0.01-0.22,0.01-0.33,0
		c-0.05,0-0.07-0.05-0.08-0.09c0-0.05,0-0.1,0-0.16C57.81,25.33,57.81,24.88,57.81,24.43z"/>
</g>
</svg>
