<?xml version="1.0" encoding="utf-8"?>
<!-- Generator: Adobe Illustrator 27.1.1, SVG Export Plug-In . SVG Version: 6.00 Build 0)  -->
<svg version="1.1" id="Calque_1" xmlns="http://www.w3.org/2000/svg" xmlns:xlink="http://www.w3.org/1999/xlink" x="0px" y="0px"
	 viewBox="0 0 323.57 139.03" style="enable-background:new 0 0 323.57 139.03;" xml:space="preserve">
<style type="text/css">
	.st0{fill:#828383;}
	.st1{fill:#234998;}
	.st2{font-family:'ArialMT';}
	.st3{font-size:14.736px;}
	.st4{fill:none;stroke:#009640;stroke-miterlimit:10;}
</style>
<g>
	<path d="M57.13,58.88V44.95h31.98V73.5c-6.12,4.17-11.53,7.01-16.24,8.52c-4.7,1.51-10.29,2.26-16.74,2.26
		c-7.95,0-14.43-1.36-19.44-4.07c-5.01-2.71-8.89-6.75-11.65-12.11c-2.76-5.36-4.14-11.51-4.14-18.46c0-7.31,1.51-13.67,4.52-19.07
		c3.01-5.41,7.43-9.51,13.25-12.31c4.54-2.16,10.65-3.24,18.32-3.24c7.4,0,12.94,0.67,16.61,2.01c3.67,1.34,6.72,3.42,9.14,6.23
		c2.42,2.82,4.24,6.39,5.46,10.71l-19.96,3.56c-0.82-2.53-2.22-4.46-4.18-5.8c-1.97-1.34-4.47-2.01-7.52-2.01
		c-4.54,0-8.16,1.58-10.85,4.73c-2.7,3.15-4.04,8.14-4.04,14.96c0,7.25,1.36,12.43,4.09,15.53c2.73,3.11,6.52,4.66,11.4,4.66
		c2.31,0,4.52-0.34,6.63-1.01c2.1-0.67,4.51-1.81,7.22-3.43v-6.3H57.13z"/>
	<path d="M101.13,64.5H121v18.64h-19.87V64.5z"/>
	<path d="M128.76,16.16h62.91V32.7h-21.11v50.44h-20.69V32.7h-21.11V16.16z"/>
	<path d="M185.55,64.5h19.87v18.64h-19.87V64.5z"/>
	<path d="M259.07,72.08h-23.5l-3.26,11.06h-21.13l25.17-66.98h22.57l25.17,66.98h-21.67L259.07,72.08z M254.78,57.6l-7.39-24.08
		l-7.31,24.08H254.78z"/>
</g>
<text transform="matrix(1 0 0 1 22.1288 106.6883)" class="st2 st3">(Générale des Travaux d’Amenagement)</text>
</svg>
